<svg width="32" height="32" fill="none" xmlns="http://www.w3.org/2000/svg"><circle cx="16" cy="16" r="16" fill="#000"/><path d="M7.58 9.979c2.896 5.578 4.419 8.543 4.571 8.894l3.885-8.824 3.023-.123v.351c-.152.012-.34.036-.562.07a3.667 3.667 0 0 0-.72.212c-.259.093-.387.21-.387.351v9.053l.14.246c.094.164.223.293.387.387.176.093.404.146.685.158l.422-.035v.316A68.752 68.752 0 0 0 16.651 21c-1.02 0-1.799.018-2.338.053v-.282c.024 0 .164-.011.422-.035.258-.023.451-.07.58-.14.317-.14.475-.328.475-.563V12.07l-4.13 9.176h-.282l-4.623-9.07v7.593c0 .212.011.358.035.44.023.07.076.135.158.193.094.047.17.1.229.159.257.093.574.146.949.158h.105v.316a30.571 30.571 0 0 0-1.863-.053c-.738 0-1.389.024-1.951.07v-.28l.703-.088c.469-.07.773-.17.914-.3a.709.709 0 0 0 .193-.28l.053-.176c.024 0 .035-2.748.035-8.244-.058-.352-.304-.65-.738-.897a3.141 3.141 0 0 0-1.3-.422v-.316l3.304-.07Zm16.484 9.826c0 .527.21.79.632.79l2.268.018c.41 0 .768-.228 1.072-.685.317-.457.51-.99.58-1.6h.387l-.281 2.725h-8.104v-.282l.405-.017a3.96 3.96 0 0 0 .826-.158c.27-.082.41-.188.422-.317.058-.633.087-2.654.087-6.064 0-1.934-.011-3.1-.035-3.498-.011-.152-.258-.264-.738-.334l-.738-.123v-.317l4.517-.017v.281c-.82.047-1.242.217-1.265.51-.035 2.8-.053 4.488-.053 5.062v1.688c.012.832.018 1.611.018 2.338Z" fill="#fff"/></svg>